<mxfile host="Electron" modified="2024-05-05T23:15:55.058Z" agent="Mozilla/5.0 (Windows NT 10.0; Win64; x64) AppleWebKit/537.36 (KHTML, like Gecko) draw.io/23.1.5 Chrome/120.0.6099.109 Electron/28.1.0 Safari/537.36" etag="Z3b6DsA67YH2W80Lafra" version="23.1.5" type="device" pages="2">
  <diagram name="InitGUI" id="2YBvvXClWsGukQMizWep">
    <mxGraphModel dx="1035" dy="626" grid="1" gridSize="10" guides="1" tooltips="1" connect="1" arrows="1" fold="1" page="1" pageScale="1" pageWidth="850" pageHeight="1100" math="0" shadow="0">
      <root>
        <mxCell id="0" />
        <mxCell id="1" parent="0" />
        <mxCell id="Re_mhGTcGhZY0vKWdJ-O-14" value="g: GameFrame" style="shape=umlLifeline;perimeter=lifelinePerimeter;whiteSpace=wrap;html=1;container=1;dropTarget=0;collapsible=0;recursiveResize=0;outlineConnect=0;portConstraint=eastwest;newEdgeStyle={&quot;curved&quot;:0,&quot;rounded&quot;:0};size=40;" vertex="1" parent="1">
          <mxGeometry x="270" y="170" width="121.4" height="430" as="geometry" />
        </mxCell>
        <mxCell id="Re_mhGTcGhZY0vKWdJ-O-15" value="" style="html=1;points=[[0,0,0,0,5],[0,1,0,0,-5],[1,0,0,0,5],[1,1,0,0,-5]];perimeter=orthogonalPerimeter;outlineConnect=0;targetShapes=umlLifeline;portConstraint=eastwest;newEdgeStyle={&quot;curved&quot;:0,&quot;rounded&quot;:0};" vertex="1" parent="Re_mhGTcGhZY0vKWdJ-O-14">
          <mxGeometry x="55.7" y="80" width="10" height="280" as="geometry" />
        </mxCell>
        <mxCell id="Re_mhGTcGhZY0vKWdJ-O-25" value="" style="html=1;points=[[0,0,0,0,5],[0,1,0,0,-5],[1,0,0,0,5],[1,1,0,0,-5]];perimeter=orthogonalPerimeter;outlineConnect=0;targetShapes=umlLifeline;portConstraint=eastwest;newEdgeStyle={&quot;curved&quot;:0,&quot;rounded&quot;:0};" vertex="1" parent="Re_mhGTcGhZY0vKWdJ-O-14">
          <mxGeometry x="60" y="120" width="10" height="40" as="geometry" />
        </mxCell>
        <mxCell id="Re_mhGTcGhZY0vKWdJ-O-26" value="initButtons()" style="html=1;align=left;spacingLeft=2;endArrow=block;rounded=0;edgeStyle=orthogonalEdgeStyle;curved=0;rounded=0;" edge="1" parent="Re_mhGTcGhZY0vKWdJ-O-14" target="Re_mhGTcGhZY0vKWdJ-O-25" source="Re_mhGTcGhZY0vKWdJ-O-15">
          <mxGeometry relative="1" as="geometry">
            <mxPoint x="71.40000000000005" y="100" as="sourcePoint" />
            <Array as="points">
              <mxPoint x="96" y="100" />
              <mxPoint x="96" y="140" />
            </Array>
          </mxGeometry>
        </mxCell>
        <mxCell id="Re_mhGTcGhZY0vKWdJ-O-40" value="" style="html=1;points=[[0,0,0,0,5],[0,1,0,0,-5],[1,0,0,0,5],[1,1,0,0,-5]];perimeter=orthogonalPerimeter;outlineConnect=0;targetShapes=umlLifeline;portConstraint=eastwest;newEdgeStyle={&quot;curved&quot;:0,&quot;rounded&quot;:0};" vertex="1" parent="Re_mhGTcGhZY0vKWdJ-O-14">
          <mxGeometry x="60" y="300" width="10" height="40" as="geometry" />
        </mxCell>
        <mxCell id="Re_mhGTcGhZY0vKWdJ-O-41" value="drawMap()" style="html=1;align=left;spacingLeft=2;endArrow=block;rounded=0;edgeStyle=orthogonalEdgeStyle;curved=0;rounded=0;" edge="1" parent="Re_mhGTcGhZY0vKWdJ-O-14" target="Re_mhGTcGhZY0vKWdJ-O-40">
          <mxGeometry relative="1" as="geometry">
            <mxPoint x="66" y="260" as="sourcePoint" />
            <Array as="points">
              <mxPoint x="66" y="270" />
              <mxPoint x="96" y="270" />
              <mxPoint x="96" y="300" />
            </Array>
          </mxGeometry>
        </mxCell>
        <mxCell id="Re_mhGTcGhZY0vKWdJ-O-16" value="m: MapView" style="shape=umlLifeline;perimeter=lifelinePerimeter;whiteSpace=wrap;html=1;container=1;dropTarget=0;collapsible=0;recursiveResize=0;outlineConnect=0;portConstraint=eastwest;newEdgeStyle={&quot;curved&quot;:0,&quot;rounded&quot;:0};" vertex="1" parent="1">
          <mxGeometry x="428.6" y="170" width="100" height="430" as="geometry" />
        </mxCell>
        <mxCell id="Re_mhGTcGhZY0vKWdJ-O-34" value="" style="html=1;points=[[0,0,0,0,5],[0,1,0,0,-5],[1,0,0,0,5],[1,1,0,0,-5]];perimeter=orthogonalPerimeter;outlineConnect=0;targetShapes=umlLifeline;portConstraint=eastwest;newEdgeStyle={&quot;curved&quot;:0,&quot;rounded&quot;:0};" vertex="1" parent="Re_mhGTcGhZY0vKWdJ-O-16">
          <mxGeometry x="45" y="180" width="10" height="70" as="geometry" />
        </mxCell>
        <mxCell id="Re_mhGTcGhZY0vKWdJ-O-22" value="&lt;b&gt;sd&lt;/b&gt;&amp;nbsp;Init GUI" style="shape=umlFrame;whiteSpace=wrap;html=1;pointerEvents=0;width=190;height=30;" vertex="1" parent="1">
          <mxGeometry x="50" y="130" width="650" height="510" as="geometry" />
        </mxCell>
        <mxCell id="Re_mhGTcGhZY0vKWdJ-O-23" value="" style="endArrow=none;dashed=1;html=1;rounded=0;" edge="1" parent="1">
          <mxGeometry width="50" height="50" relative="1" as="geometry">
            <mxPoint x="90" y="580" as="sourcePoint" />
            <mxPoint x="90" y="125" as="targetPoint" />
          </mxGeometry>
        </mxCell>
        <mxCell id="Re_mhGTcGhZY0vKWdJ-O-24" value=":GameController" style="shape=umlActor;verticalLabelPosition=bottom;verticalAlign=top;html=1;outlineConnect=0;" vertex="1" parent="1">
          <mxGeometry x="70" y="35" width="40" height="70" as="geometry" />
        </mxCell>
        <mxCell id="Re_mhGTcGhZY0vKWdJ-O-28" value="gi:GameInitializer" style="shape=umlLifeline;perimeter=lifelinePerimeter;whiteSpace=wrap;html=1;container=1;dropTarget=0;collapsible=0;recursiveResize=0;outlineConnect=0;portConstraint=eastwest;newEdgeStyle={&quot;curved&quot;:0,&quot;rounded&quot;:0};" vertex="1" parent="1">
          <mxGeometry x="130" y="170" width="100" height="430" as="geometry" />
        </mxCell>
        <mxCell id="Re_mhGTcGhZY0vKWdJ-O-29" value="" style="html=1;points=[[0,0,0,0,5],[0,1,0,0,-5],[1,0,0,0,5],[1,1,0,0,-5]];perimeter=orthogonalPerimeter;outlineConnect=0;targetShapes=umlLifeline;portConstraint=eastwest;newEdgeStyle={&quot;curved&quot;:0,&quot;rounded&quot;:0};" vertex="1" parent="Re_mhGTcGhZY0vKWdJ-O-28">
          <mxGeometry x="45" y="60" width="10" height="330" as="geometry" />
        </mxCell>
        <mxCell id="Re_mhGTcGhZY0vKWdJ-O-30" value="initGIU()" style="html=1;verticalAlign=bottom;endArrow=block;curved=0;rounded=0;" edge="1" parent="1" target="Re_mhGTcGhZY0vKWdJ-O-29">
          <mxGeometry width="80" relative="1" as="geometry">
            <mxPoint x="90" y="230" as="sourcePoint" />
            <mxPoint x="170" y="230" as="targetPoint" />
          </mxGeometry>
        </mxCell>
        <mxCell id="Re_mhGTcGhZY0vKWdJ-O-33" value="initFrame()" style="html=1;verticalAlign=bottom;endArrow=block;curved=0;rounded=0;" edge="1" parent="1">
          <mxGeometry width="80" relative="1" as="geometry">
            <mxPoint x="185" y="250" as="sourcePoint" />
            <mxPoint x="325.70000000000005" y="250" as="targetPoint" />
          </mxGeometry>
        </mxCell>
        <mxCell id="Re_mhGTcGhZY0vKWdJ-O-35" value="initPanel()" style="html=1;verticalAlign=bottom;endArrow=block;curved=0;rounded=0;" edge="1" parent="1">
          <mxGeometry x="0.0007" width="80" relative="1" as="geometry">
            <mxPoint x="335.70000000000005" y="350" as="sourcePoint" />
            <mxPoint x="473.5999999999999" y="350" as="targetPoint" />
            <mxPoint as="offset" />
          </mxGeometry>
        </mxCell>
        <mxCell id="Re_mhGTcGhZY0vKWdJ-O-36" value="" style="html=1;verticalAlign=bottom;endArrow=open;dashed=1;endSize=8;curved=0;rounded=0;" edge="1" parent="1">
          <mxGeometry relative="1" as="geometry">
            <mxPoint x="473.5999999999999" y="420" as="sourcePoint" />
            <mxPoint x="335.70000000000005" y="420" as="targetPoint" />
          </mxGeometry>
        </mxCell>
        <mxCell id="Re_mhGTcGhZY0vKWdJ-O-37" value="" style="html=1;verticalAlign=bottom;endArrow=open;dashed=1;endSize=8;curved=0;rounded=0;" edge="1" parent="1" source="Re_mhGTcGhZY0vKWdJ-O-15" target="Re_mhGTcGhZY0vKWdJ-O-29">
          <mxGeometry relative="1" as="geometry">
            <mxPoint x="300" y="360" as="sourcePoint" />
            <mxPoint x="220" y="360" as="targetPoint" />
            <Array as="points">
              <mxPoint x="280" y="520" />
            </Array>
          </mxGeometry>
        </mxCell>
        <mxCell id="Re_mhGTcGhZY0vKWdJ-O-42" value="e: ElementView" style="shape=umlLifeline;perimeter=lifelinePerimeter;whiteSpace=wrap;html=1;container=1;dropTarget=0;collapsible=0;recursiveResize=0;outlineConnect=0;portConstraint=eastwest;newEdgeStyle={&quot;curved&quot;:0,&quot;rounded&quot;:0};" vertex="1" parent="1">
          <mxGeometry x="570" y="170" width="100" height="430" as="geometry" />
        </mxCell>
        <mxCell id="Re_mhGTcGhZY0vKWdJ-O-43" value="" style="html=1;points=[[0,0,0,0,5],[0,1,0,0,-5],[1,0,0,0,5],[1,1,0,0,-5]];perimeter=orthogonalPerimeter;outlineConnect=0;targetShapes=umlLifeline;portConstraint=eastwest;newEdgeStyle={&quot;curved&quot;:0,&quot;rounded&quot;:0};" vertex="1" parent="Re_mhGTcGhZY0vKWdJ-O-42">
          <mxGeometry x="45" y="190" width="10" height="40" as="geometry" />
        </mxCell>
        <mxCell id="Re_mhGTcGhZY0vKWdJ-O-44" value="initView()" style="html=1;verticalAlign=bottom;endArrow=block;curved=0;rounded=0;" edge="1" parent="1">
          <mxGeometry x="0.0007" width="80" relative="1" as="geometry">
            <mxPoint x="483.5999999999999" y="360" as="sourcePoint" />
            <mxPoint x="615" y="360" as="targetPoint" />
            <mxPoint as="offset" />
          </mxGeometry>
        </mxCell>
        <mxCell id="Re_mhGTcGhZY0vKWdJ-O-45" value="" style="html=1;verticalAlign=bottom;endArrow=open;dashed=1;endSize=8;curved=0;rounded=0;" edge="1" parent="1">
          <mxGeometry relative="1" as="geometry">
            <mxPoint x="615" y="400" as="sourcePoint" />
            <mxPoint x="483.5999999999999" y="400" as="targetPoint" />
          </mxGeometry>
        </mxCell>
        <mxCell id="Re_mhGTcGhZY0vKWdJ-O-46" value="" style="html=1;verticalAlign=bottom;endArrow=open;dashed=1;endSize=8;curved=0;rounded=0;" edge="1" parent="1">
          <mxGeometry relative="1" as="geometry">
            <mxPoint x="180" y="560" as="sourcePoint" />
            <mxPoint x="90" y="560" as="targetPoint" />
          </mxGeometry>
        </mxCell>
      </root>
    </mxGraphModel>
  </diagram>
  <diagram id="FwnTjt2sr9CHiwAwmxPS" name="Page-2">
    <mxGraphModel dx="880" dy="532" grid="1" gridSize="10" guides="1" tooltips="1" connect="1" arrows="1" fold="1" page="1" pageScale="1" pageWidth="827" pageHeight="1169" math="0" shadow="0">
      <root>
        <mxCell id="0" />
        <mxCell id="1" parent="0" />
      </root>
    </mxGraphModel>
  </diagram>
</mxfile>
